<svg xmlns="http://www.w3.org/2000/svg" xmlns:xlink="http://www.w3.org/1999/xlink" width="30" height="31" viewBox="0 0 30 31">
    <defs>
        <path id="a" d="M0 .132h29.865v29.866H0z"/>
    </defs>
    <g fill="none" fill-rule="evenodd">
        <g transform="translate(0 .29)">
            <mask id="b" fill="#fff">
                <use xlink:href="#a"/>
            </mask>
            <path fill="#68BC97" d="M29.865 15.065C29.865 6.818 23.18.132 14.932.132 6.686.132 0 6.818 0 15.065s6.686 14.933 14.932 14.933c8.248 0 14.933-6.686 14.933-14.933" mask="url(#b)"/>
        </g>
        <path fill="#FEFEFE" d="M16.151 11.04c1.781-.683 3.23 1.731 2.286 2.793-.944 1.063.993 4.531 1.307 5.158.678 1.353-.813 1.724-1.307 1.528-1.16-.117-2.59-5.122-2.59-5.122l-3.59.338s2.494 4.766-.063 4.858c-2.558.093-4.843 0-6.708 0-1.864 0-1.34-2.542.019-2.521 1.358.02 4.764-.02 4.764-.02s-.92-3.507-1.265-4.514c-.345-1.008.444-1.985 1.479-2.094 1.035-.108 3.571.402 5.668-.403M24.636 10.995a2.357 2.357 0 1 1-4.713-.148 2.357 2.357 0 0 1 4.713.148"/>
    </g>
</svg>
