<svg xmlns="http://www.w3.org/2000/svg" width="31" height="26" viewBox="0 0 31 26">
    <g fill="#9B9B9B" fill-rule="nonzero">
        <path d="M26.324 26h-6.478a.623.623 0 0 1-.472-.196.585.585 0 0 1-.203-.456v-6.782c0-.587-.135-.978-.405-1.24-.404-.326-.81-.326-.81-.326l-3.913-.065c-1.283.13-1.283 1.37-1.283 1.5v6.913c0 .326-.27.652-.674.652H5.675C5.337 26 5 25.74 5 25.348V11.652c0-.326.27-.652.675-.652s.675.26.675.652v13.044h4.993v-6.261c0-.848.54-2.544 2.565-2.805l3.914.066c.068 0 .944-.066 1.755.587.54.521.877 1.238.877 2.152v6.195h5.196V11.783c0-.326.27-.653.675-.653.338 0 .675.261.675.653v13.565c0 .326-.338.652-.676.652z"/>
        <path d="M30.332 16a.61.61 0 0 1-.467-.198L15.433 1.58 1.136 15.67a.652.652 0 0 1-.936 0 .63.63 0 0 1 0-.92L14.966.198a.652.652 0 0 1 .934 0L30.8 14.88a.631.631 0 0 1 0 .921.61.61 0 0 1-.468.198z"/>
    </g>
</svg>
