<svg xmlns="http://www.w3.org/2000/svg" width="24" height="27" viewBox="0 0 24 27">
    <g fill="none" fill-rule="evenodd">
        <path stroke="#62C69A" stroke-width="1.5" d="M4.667 8.727v8.728M9.03 13.09H.303"/>
        <path fill="#62C69A" fill-rule="nonzero" d="M23.231 7.959l-.149-.099a10.86 10.86 0 0 0-1.225-.71 4.132 4.132 0 0 0 1.33-3.052c0-2.217-1.707-4.02-3.806-4.02s-3.806 1.803-3.806 4.02c0 1.18.497 2.295 1.33 3.052-.389.19-.794.425-1.225.71l-.149.098-.073.521c-.228 1.599-.463 3.251-.064 4.882l.028.116.088.081c.832.764.872 1.58.676 2.568l-.006.04a.734.734 0 0 0 .008.213l-.005.002.999 4.828h-.465a.802.802 0 0 0-.801.798v3.751c0 .396.299.753.712.848a12.74 12.74 0 0 0 2.753.293c.949 0 1.9-.101 2.754-.294.412-.094.71-.451.71-.847v-3.75a.802.802 0 0 0-.801-.798h-.464l1-4.829h-.006a.725.725 0 0 0 .007-.215l-.005-.04c-.197-.988-.157-1.803.676-2.567l.088-.081.028-.116c.399-1.632.164-3.285-.064-4.883l-.073-.52zm-.608 5.105c-1.07 1.046-1.025 2.198-.83 3.195v.004l-1.186 5.736 1.445.008v3.752c0 .016-.038.064-.094.077-1.59.358-3.566.358-5.152 0-.057-.013-.096-.061-.096-.077l.008-3.76h1.439l-1.188-5.736a.02.02 0 0 1 0-.005c.196-.996.24-2.148-.83-3.194-.326-1.448-.116-2.919.105-4.474l.024-.17a8.26 8.26 0 0 1 1.558-.807l.758-.284-.69-.422c-.94-.574-1.525-1.65-1.525-2.809 0-1.781 1.351-3.23 3.012-3.23s3.013 1.449 3.013 3.23c0 1.158-.585 2.235-1.525 2.81l-.69.42.758.285a8.27 8.27 0 0 1 1.557.808l.024.17c.222 1.554.431 3.025.105 4.473z"/>
    </g>
</svg>
