<svg xmlns="http://www.w3.org/2000/svg" width="42" height="26" viewBox="0 0 42 26">
    <g fill="#9B9B9B" fill-rule="evenodd">
        <path fill-rule="nonzero" d="M35.61 18.813c5.038-1.811 7.582-7.37 5.776-12.38C39.54 1.369 34.027-1.263 28.988.548c-4.986 1.772-7.622 7.316-5.776 12.38 1.885 5.117 7.463 7.617 12.397 5.885zm-11.476-9.89l.053-.04 3.344.625 1.15 3.27c-1.005 1.172-1.057 1.211-2.18 2.554l-.052.04c-.781-.819-1.445-1.808-1.847-2.995a7.405 7.405 0 0 1-.468-3.454zm4.628-6.715l.04.053 1.163 3.178C29 6.664 28.62 7.032 27.772 8.085c-1.146-.213-2.199-.412-3.344-.625l-.04-.052c.643-2.306 2.21-4.149 4.374-5.2zm8.131.659l.027.145c-.77.83-1.502 1.711-2.18 2.553l-3.397-.585-1.15-3.27c2.284-.563 4.76-.111 6.7 1.157zm-5.791 3.536l3.344.625 1.203 3.231-2.193 2.646-3.384-.678L28.91 9.05l2.193-2.646zm6.915-2.48l.132.066c.781.819 1.445 1.808 1.859 2.903.362 1.134.54 2.241.468 3.454l-.052.04-3.397-.586-1.15-3.27c.73-.883 1.41-1.725 2.14-2.607zm-8.146 9.78c1.053.2 2.199.412 3.344.625l1.15 3.27-.052.04c-2.284.563-4.707.071-6.596-1.236l-.08-.106c1.45-1.672.902-1.093 2.234-2.593zm5.978 3.357l-.093-.013-1.203-3.231c.731-.882 1.502-1.711 2.233-2.593l3.344.625.08.105a8.301 8.301 0 0 1-4.361 5.107z"/>
        <path d="M21.254 17.279L.613 24.64.13 23.348l20.34-7.217c.226.409.504.778.783 1.148zM25.151 20.221L9.3 25.877l-.482-1.293 14.723-5.301c.515.356 1.083.674 1.61.938zM21.269 12.658L5.417 18.314l-.481-1.293 14.722-5.301c.515.356 1.083.674 1.61.938z"/>
    </g>
</svg>
