<svg xmlns="http://www.w3.org/2000/svg" width="21" height="14" viewBox="0 0 21 14">
    <g fill="#9B9B9B" fill-rule="nonzero">
        <path d="M18.5 5a.575.575 0 0 1-.313-.09c-.215-.145-.25-.407-.078-.587L19.86 2.5 18.11.677c-.172-.179-.137-.441.078-.586a.57.57 0 0 1 .703.065l2 2.084a.364.364 0 0 1 0 .52l-2 2.084A.542.542 0 0 1 18.5 5zM2.5 14a.541.541 0 0 1-.39-.157l-2-2.083a.364.364 0 0 1 0-.521l2-2.084a.574.574 0 0 1 .703-.065c.215.146.25.407.078.586L1.14 11.5l1.75 1.823c.172.181.137.442-.078.586A.567.567 0 0 1 2.5 14z"/>
        <path d="M2.201 13H.435A.448.448 0 0 1 0 12.542c0-.252.195-.459.435-.459H2.2c3.269 0 5.265-2.373 7.379-4.886C11.727 4.642 13.948 2 17.609 2h1.956c.24 0 .435.205.435.458a.447.447 0 0 1-.435.459H17.61c-3.27 0-5.267 2.374-7.379 4.887C8.083 10.36 5.862 13 2.201 13zM2.5 5a.544.544 0 0 1-.39-.156l-2-2.084a.365.365 0 0 1 0-.52l2-2.084A.573.573 0 0 1 2.813.09c.215.144.25.407.078.586L1.14 2.5l1.75 1.823c.172.18.137.442-.078.586A.567.567 0 0 1 2.5 5zM18.5 14a.575.575 0 0 1-.313-.09c-.215-.144-.25-.406-.078-.587l1.75-1.823-1.75-1.823c-.172-.18-.137-.44.078-.586a.57.57 0 0 1 .703.065l2 2.083a.364.364 0 0 1 0 .521l-2 2.083a.539.539 0 0 1-.39.157z"/>
        <path d="M19.565 13H17.8c-3.657 0-5.932-2.64-8.134-5.192-2.17-2.515-4.219-4.891-7.491-4.891H.434A.447.447 0 0 1 0 2.458C0 2.205.195 2 .435 2h1.739c3.658 0 5.933 2.64 8.134 5.192 2.17 2.515 4.219 4.891 7.491 4.891h1.766c.24 0 .435.207.435.459a.448.448 0 0 1-.435.458z"/>
    </g>
</svg>
